<?xml version="1.0" encoding="UTF-8" standalone="no"?>
<!-- Created with Inkscape (http://www.inkscape.org/) -->

<svg
   xmlns:dc="http://purl.org/dc/elements/1.1/"
   xmlns:cc="http://creativecommons.org/ns#"
   xmlns:rdf="http://www.w3.org/1999/02/22-rdf-syntax-ns#"
   xmlns:svg="http://www.w3.org/2000/svg"
   xmlns="http://www.w3.org/2000/svg"
   xmlns:sodipodi="http://sodipodi.sourceforge.net/DTD/sodipodi-0.dtd"
   xmlns:inkscape="http://www.inkscape.org/namespaces/inkscape"
   id="svg3063"
   version="1.1"
   inkscape:version="0.48.2 r9819"
   width="2666"
   height="1500"
   sodipodi:docname="icrar-star-bg.png">
  <metadata
     id="metadata3069">
    <rdf:RDF>
      <cc:Work
         rdf:about="">
        <dc:format>image/svg+xml</dc:format>
        <dc:type
           rdf:resource="http://purl.org/dc/dcmitype/StillImage" />
        <dc:title></dc:title>
      </cc:Work>
    </rdf:RDF>
  </metadata>
  <defs
     id="defs3067">
    <clipPath
       id="clipPath3668"
       clipPathUnits="userSpaceOnUse">
      <path
         id="path3670"
         d="m 587,580 206,0 0,129 -206,0 0,-129 z" />
    </clipPath>
    <clipPath
       id="clipPath3664"
       clipPathUnits="userSpaceOnUse">
      <path
         id="path3666"
         d="m 806.35,299.4 0,409.6 -410,-10e-5 10e-5,-409.5999 409.9999,0 z" />
    </clipPath>
    <clipPath
       id="clipPath3660"
       clipPathUnits="userSpaceOnUse">
      <path
         id="path3662"
         d="m 792,581 0,128 -205,0 0,-128 205,0 z" />
    </clipPath>
    <clipPath
       id="clipPath3656"
       clipPathUnits="userSpaceOnUse">
      <path
         id="path3658"
         d="m 587,581 205,0 0,128 -205,0 0,-128 z" />
    </clipPath>
    <clipPath
       id="clipPath3650"
       clipPathUnits="userSpaceOnUse">
      <path
         id="path3652"
         d="m 587.0665,580.5078 205.3586,0 0,128.3492 -205.3586,0 0,-128.3492 z" />
    </clipPath>
    <clipPath
       id="clipPath3636"
       clipPathUnits="userSpaceOnUse">
      <path
         id="path3638"
         d="m 0,0 1920,0 0,1080 L 0,1080 0,0 z" />
    </clipPath>
    <clipPath
       id="clipPath3630"
       clipPathUnits="userSpaceOnUse">
      <path
         id="path3632"
         d="m 775.7672,377.51 0,328 -328.7672,0 0,-328 328.7672,0 z" />
    </clipPath>
    <clipPath
       id="clipPath3624"
       clipPathUnits="userSpaceOnUse">
      <path
         id="path3626"
         d="m 567,455 0,164 -120,0 0,-164 120,0 z" />
    </clipPath>
    <clipPath
       id="clipPath3596"
       clipPathUnits="userSpaceOnUse">
      <path
         id="path3598"
         d="m 391,286 259,0 0,162 -259,0 0,-162 z" />
    </clipPath>
    <clipPath
       id="clipPath3592"
       clipPathUnits="userSpaceOnUse">
      <path
         id="path3594"
         d="m 373.94,802.2 0,-515.1999 516,0 0,515.2 -516,-10e-5 z" />
    </clipPath>
    <clipPath
       id="clipPath3588"
       clipPathUnits="userSpaceOnUse">
      <path
         id="path3590"
         d="m 392,448 0,-161 258,0 0,161 -258,0 z" />
    </clipPath>
    <clipPath
       id="clipPath3584"
       clipPathUnits="userSpaceOnUse">
      <path
         id="path3586"
         d="m 392,287 258,0 0,161 -258,0 0,-161 z" />
    </clipPath>
    <clipPath
       id="clipPath3578"
       clipPathUnits="userSpaceOnUse">
      <path
         id="path3580"
         d="m 391.707,286.7889 257.6597,0 0,161.0374 -257.6597,0 0,-161.0374 z" />
    </clipPath>
    <clipPath
       id="clipPath3564"
       clipPathUnits="userSpaceOnUse">
      <path
         id="path3566"
         d="m 0,0 1920,0 0,1080 L 0,1080 0,0 z" />
    </clipPath>
    <clipPath
       id="clipPath3558"
       clipPathUnits="userSpaceOnUse">
      <path
         id="path3560"
         d="m 390.2466,755.0925 0,-466 465.7534,0 0,466 -465.7534,0 z" />
    </clipPath>
    <clipPath
       id="clipPath3552"
       clipPathUnits="userSpaceOnUse">
      <path
         id="path3554"
         d="m 686,645 0,-233 170,0 0,233 -170,0 z" />
    </clipPath>
    <clipPath
       id="clipPath3538"
       clipPathUnits="userSpaceOnUse">
      <path
         id="path3540"
         d="m 0,0 1920,0 0,1080 L 0,1080 0,0 z" />
    </clipPath>
    <clipPath
       id="clipPath3532"
       clipPathUnits="userSpaceOnUse">
      <path
         id="path3534"
         d="m 334,849.0339 0,-620.6201 619.0477,1e-4 -10e-5,620.62 -619.0476,0 z" />
    </clipPath>
    <clipPath
       id="clipPath3526"
       clipPathUnits="userSpaceOnUse">
      <path
         id="path3528"
         d="m 334,690 0,-308 260,0 0,308 -260,0 z" />
    </clipPath>
    <clipPath
       id="clipPath3512"
       clipPathUnits="userSpaceOnUse">
      <path
         id="path3514"
         d="m 0,0 1920,0 0,1080 L 0,1080 0,0 z" />
    </clipPath>
    <clipPath
       id="clipPath3506"
       clipPathUnits="userSpaceOnUse">
      <path
         id="path3508"
         d="m 503.3158,645 0,-234 234.6842,0 0,234 -234.6842,0 z" />
    </clipPath>
    <clipPath
       id="clipPath3500"
       clipPathUnits="userSpaceOnUse">
      <path
         id="path3502"
         d="m 621,645 0,-117 117,0 0,117 -117,0 z" />
    </clipPath>
    <clipPath
       id="clipPath3486"
       clipPathUnits="userSpaceOnUse">
      <path
         id="path3488"
         d="m 0,0 1920,0 0,1080 L 0,1080 0,0 z" />
    </clipPath>
    <clipPath
       id="clipPath3480"
       clipPathUnits="userSpaceOnUse">
      <path
         id="path3482"
         d="m 776.8069,407 0,276 -276.807,0 10e-5,-276 276.8069,0 z" />
    </clipPath>
    <clipPath
       id="clipPath3474"
       clipPathUnits="userSpaceOnUse">
      <path
         id="path3476"
         d="m 638,407 0,138 -138,0 0,-138 138,0 z" />
    </clipPath>
    <clipPath
       id="clipPath3460"
       clipPathUnits="userSpaceOnUse">
      <path
         id="path3462"
         d="m 0,0 1920,0 0,1080 L 0,1080 0,0 z" />
    </clipPath>
    <clipPath
       id="clipPath3454"
       clipPathUnits="userSpaceOnUse">
      <path
         id="path3456"
         d="m 424.8304,322 0,400 L 826,722.0001 826,322 424.8304,322 z" />
    </clipPath>
    <clipPath
       id="clipPath3448"
       clipPathUnits="userSpaceOnUse">
      <path
         id="path3450"
         d="m 626,322 0,200 200,0 0,-200 -200,0 z" />
    </clipPath>
    <clipPath
       id="clipPath3434"
       clipPathUnits="userSpaceOnUse">
      <path
         id="path3436"
         d="m 0,0 1920,0 0,1080 L 0,1080 0,0 z" />
    </clipPath>
    <clipPath
       id="clipPath3428"
       clipPathUnits="userSpaceOnUse">
      <path
         id="path3430"
         d="m 951,195 10e-5,666.0001 -666.0002,0 L 285,195 l 666,0 z" />
    </clipPath>
    <clipPath
       id="clipPath3422"
       clipPathUnits="userSpaceOnUse">
      <path
         id="path3424"
         d="m 618,195 0,333 -333,0 0,-333 333,0 z" />
    </clipPath>
    <clipPath
       id="clipPath3408"
       clipPathUnits="userSpaceOnUse">
      <path
         id="path3410"
         d="m 0,0 1920,0 0,1080 L 0,1080 0,0 z" />
    </clipPath>
    <clipPath
       id="clipPath3402"
       clipPathUnits="userSpaceOnUse">
      <path
         id="path3404"
         d="m 354.01,798.0001 0,-535.9901 535.9901,0 -10e-5,535.9901 -535.99,0 z" />
    </clipPath>
    <clipPath
       id="clipPath3396"
       clipPathUnits="userSpaceOnUse">
      <path
         id="path3398"
         d="m 624,798 0,-266 266,0 0,266 -266,0 z" />
    </clipPath>
    <clipPath
       id="clipPath3382"
       clipPathUnits="userSpaceOnUse">
      <path
         id="path3384"
         d="m 0,0 1920,0 0,1080 L 0,1080 0,0 z" />
    </clipPath>
    <clipPath
       id="clipPath3376"
       clipPathUnits="userSpaceOnUse">
      <path
         id="path3378"
         d="m 799.1696,756 0,-400 -401.1696,0 0,400 401.1696,0 z" />
    </clipPath>
    <clipPath
       id="clipPath3370"
       clipPathUnits="userSpaceOnUse">
      <path
         id="path3372"
         d="m 598,756 0,-200 -200,0 0,200 200,0 z" />
    </clipPath>
    <clipPath
       id="clipPath3346"
       clipPathUnits="userSpaceOnUse">
      <path
         id="path3348"
         d="M 187.0001,449 501,449 l 0,503 -313.9999,0 0,-503 z" />
    </clipPath>
    <clipPath
       id="clipPath3342"
       clipPathUnits="userSpaceOnUse">
      <path
         id="path3344"
         d="m 187,449 314,0 0,503 -314,0 0,-503 z" />
    </clipPath>
    <clipPath
       id="clipPath3336"
       clipPathUnits="userSpaceOnUse">
      <path
         id="path3338"
         d="m 186.88,449.1934 314.3751,0 0,503 -314.3751,0 0,-503 z" />
    </clipPath>
    <clipPath
       id="clipPath3322"
       clipPathUnits="userSpaceOnUse">
      <path
         id="path3324"
         d="m 446,90.00005 408,0 0,297.9999 -408,0 0,-297.9999 z" />
    </clipPath>
    <clipPath
       id="clipPath3298"
       clipPathUnits="userSpaceOnUse">
      <path
         id="path3300"
         d="m 845,0 400.9999,0 0,611 L 845,611 845,0 z" />
    </clipPath>
    <clipPath
       id="clipPath3294"
       clipPathUnits="userSpaceOnUse">
      <path
         id="path3296"
         d="m 845,0 401,0 0,611 -401,0 0,-611 z" />
    </clipPath>
    <clipPath
       id="clipPath3288"
       clipPathUnits="userSpaceOnUse">
      <path
         id="path3290"
         d="m 844.5408,0 400.6903,0 0,610.7068 -400.6903,0 0,-610.7068 z" />
    </clipPath>
    <clipPath
       id="clipPath3274"
       clipPathUnits="userSpaceOnUse">
      <path
         id="path3276"
         d="m 353,702 580,0 0,378 -580,0 0,-378 z" />
    </clipPath>
    <clipPath
       id="clipPath3260"
       clipPathUnits="userSpaceOnUse">
      <path
         id="path3262"
         d="m 242,0 765,0 0,473 -765,0 0,-473 z" />
    </clipPath>
    <clipPath
       id="clipPath3236"
       clipPathUnits="userSpaceOnUse">
      <path
         id="path3238"
         d="m 309,541 306,0 0,306 -306,0 0,-306 z" />
    </clipPath>
    <clipPath
       id="clipPath3232"
       clipPathUnits="userSpaceOnUse">
      <path
         id="path3234"
         d="m 309,541 306,0 0,306 -306,0 0,-306 z" />
    </clipPath>
    <clipPath
       id="clipPath3226"
       clipPathUnits="userSpaceOnUse">
      <path
         id="path3228"
         d="m 308.7816,540.5065 306,0 0,306 -306,0 0,-306 z" />
    </clipPath>
    <clipPath
       id="clipPath3212"
       clipPathUnits="userSpaceOnUse">
      <path
         id="path3214"
         d="m 642,158 343,0 0,343 -343,0 0,-343 z" />
    </clipPath>
    <clipPath
       id="clipPath3198"
       clipPathUnits="userSpaceOnUse">
      <path
         id="path3200"
         d="m 662,552 497,0 0,497 -497,0 0,-497 z" />
    </clipPath>
    <clipPath
       id="clipPath3174"
       clipPathUnits="userSpaceOnUse">
      <path
         id="path3176"
         d="M 644.0001,0 1472,0 l 0,531 -827.9999,0 0,-531 z" />
    </clipPath>
    <clipPath
       id="clipPath3170"
       clipPathUnits="userSpaceOnUse">
      <path
         id="path3172"
         d="m 644,0 828,0 0,531 -828,0 0,-531 z" />
    </clipPath>
    <clipPath
       id="clipPath3164"
       clipPathUnits="userSpaceOnUse">
      <path
         id="path3166"
         d="m 644.3538,0 828.0227,0 0,531.3409 -828.0227,0 0,-531.3409 z" />
    </clipPath>
    <clipPath
       id="clipPath3150"
       clipPathUnits="userSpaceOnUse">
      <path
         id="path3152"
         d="m 0,548 634,0 0,532 -634,0 0,-532 z" />
    </clipPath>
    <clipPath
       id="clipPath3136"
       clipPathUnits="userSpaceOnUse">
      <path
         id="path3138"
         d="M 78,0 576,0 576,483 78,483 78,0 z" />
    </clipPath>
    <clipPath
       id="clipPath3124"
       clipPathUnits="userSpaceOnUse">
      <path
         id="path3126"
         d="m 0,0 1920,0 0,1080 L 0,1080 0,0 z" />
    </clipPath>
  </defs>
  <sodipodi:namedview
     pagecolor="#ffffff"
     bordercolor="#666666"
     borderopacity="1"
     objecttolerance="10"
     gridtolerance="10"
     guidetolerance="10"
     inkscape:pageopacity="0"
     inkscape:pageshadow="2"
     inkscape:window-width="1676"
     inkscape:window-height="1006"
     id="namedview3065"
     showgrid="false"
     inkscape:zoom="16.810667"
     inkscape:cx="537.67962"
     inkscape:cy="950.13905"
     inkscape:window-x="4"
     inkscape:window-y="0"
     inkscape:window-maximized="1"
     inkscape:current-layer="svg3063" />
  <g
     transform="matrix(1.3987151,0,0,-1.3987151,-0.76142325,1513.2773)"
     inkscape:label="icrar-bg"
     id="g3116">
    <g
       id="g3118" />
    <g
       id="g3132">
      <g
         clip-path="url(#clipPath3136)"
         id="g3134">
        <path
           id="path3140"
           style="fill:#000000;fill-opacity:0;fill-rule:nonzero;stroke:none"
           d="m 78,-15.00002 995.9999,0 0,998.9123 -995.9999,0 0,-998.9123 z"
           inkscape:connector-curvature="0" />
        <g
           transform="matrix(2.912281,0,0,2.912281,-2216.877,-1086.719)"
           id="g3142">
          <path
             id="path3144"
             style="fill:none;stroke:#303030;stroke-width:2;stroke-linecap:butt;stroke-linejoin:miter;stroke-miterlimit:4;stroke-opacity:1;stroke-dasharray:none"
             d="m 1077.794,420.7061 c 65.608,65.6079 65.608,171.9794 0,237.5877 -65.609,65.6083 -171.9799,65.6083 -237.5879,0 -65.6081,-65.6083 -65.6081,-171.9798 0,-237.5877 65.608,-65.6081 171.9789,-65.6081 237.5879,0"
             inkscape:connector-curvature="0" />
        </g>
      </g>
    </g>
    <g
       id="g3146">
      <g
         clip-path="url(#clipPath3150)"
         id="g3148">
        <path
           id="path3154"
           style="fill:#000000;fill-opacity:0;fill-rule:nonzero;stroke:none"
           d="m -28,-123.93 1333.93,0 0,1333.93 -1333.93,0 0,-1333.93 z"
           inkscape:connector-curvature="0" />
        <g
           transform="matrix(1.655,0,0,-1.655,-948.18,1435.08)"
           id="g3156">
          <path
             id="path3158"
             style="fill:none;stroke:#929292;stroke-width:1;stroke-linecap:butt;stroke-linejoin:miter;stroke-miterlimit:4;stroke-opacity:1;stroke-dasharray:none"
             d="m 1241.843,256.1573 c 156.209,156.2098 156.209,409.4758 0,565.6855 -156.21,156.2096 -409.4759,156.2096 -565.6857,0 -156.2097,-156.2097 -156.2097,-409.4757 0,-565.6855 156.2098,-156.20977 409.4757,-156.20977 565.6857,0"
             inkscape:connector-curvature="0" />
        </g>
      </g>
    </g>
    <g
       id="g3160">
      <g
         clip-path="url(#clipPath3164)"
         id="g3162">
        <g
           id="g3168" />
        <g
           id="g3178">
          <g
             id="g3180"
             clip-path="url(#clipPath3170)"
             style="opacity:0.41000001">
            <g
               id="g3182" />
            <g
               id="g3184">
              <g
                 id="g3186"
                 clip-path="url(#clipPath3174)">
                <path
                   id="path3188"
                   style="fill:#000000;fill-opacity:0;fill-rule:nonzero;stroke:none"
                   d="m -183.9999,-297 1656,0 0,1656 -1656,0 0,-1656 z"
                   inkscape:connector-curvature="0" />
                <g
                   id="g3190"
                   transform="matrix(-2.732673,0,0,2.732673,3264.634,-941.9108)">
                  <path
                     id="path3192"
                     style="fill:none;stroke:#929292;stroke-width:2;stroke-linecap:butt;stroke-linejoin:miter;stroke-miterlimit:4;stroke-opacity:1;stroke-dasharray:none"
                     d="m 1171.132,326.868 c 117.157,117.1574 117.157,307.1066 0,424.2644 -117.157,117.1568 -307.1067,117.1568 -424.2641,0 -117.1573,-117.1578 -117.1573,-307.107 0,-424.2644 117.1574,-117.1573 307.1071,-117.1573 424.2641,0"
                     inkscape:connector-curvature="0" />
                </g>
              </g>
            </g>
          </g>
        </g>
      </g>
    </g>
    <g
       id="g3194">
      <g
         clip-path="url(#clipPath3198)"
         id="g3196">
        <path
           id="path3202"
           style="fill:#000000;fill-opacity:0;fill-rule:nonzero;stroke:none"
           d="m 165,52.09359 994.0001,0 0,996.90641 L 165,1049 165,52.09359 z"
           inkscape:connector-curvature="0" />
        <g
           transform="matrix(-2.906433,0,0,-2.906433,3449.269,2118.567)"
           id="g3204">
          <path
             id="path3206"
             style="fill:none;stroke:#303030;stroke-width:2;stroke-linecap:butt;stroke-linejoin:miter;stroke-miterlimit:4;stroke-opacity:1;stroke-dasharray:none"
             d="m 1077.794,420.7061 c 65.608,65.6079 65.608,171.9794 0,237.5877 -65.609,65.6083 -171.9799,65.6083 -237.5879,0 -65.6081,-65.6083 -65.6081,-171.9798 0,-237.5877 65.608,-65.6081 171.9789,-65.6081 237.5879,0"
             inkscape:connector-curvature="0" />
        </g>
      </g>
    </g>
    <g
       id="g3208">
      <g
         clip-path="url(#clipPath3212)"
         id="g3210">
        <path
           id="path3216"
           style="fill:#000000;fill-opacity:0;fill-rule:nonzero;stroke:none"
           d="m 299,158 686,0 0,688.0059 -686,0 L 299,158 z"
           inkscape:connector-curvature="0" />
        <g
           transform="matrix(-2.005848,0,0,2.005848,2565.608,-580.152)"
           id="g3218">
          <path
             id="path3220"
             style="fill:none;stroke:#303030;stroke-width:2;stroke-linecap:butt;stroke-linejoin:miter;stroke-miterlimit:4;stroke-opacity:1;stroke-dasharray:none"
             d="m 1077.794,420.7061 c 65.608,65.6079 65.608,171.9794 0,237.5877 -65.609,65.6083 -171.98,65.6083 -237.588,0 -65.608,-65.6083 -65.608,-171.9798 0,-237.5877 65.608,-65.6081 171.979,-65.6081 237.588,0"
             inkscape:connector-curvature="0" />
        </g>
      </g>
    </g>
    <g
       id="g3222">
      <g
         clip-path="url(#clipPath3226)"
         id="g3224">
        <g
           id="g3230" />
        <g
           id="g3240">
          <g
             id="g3242"
             clip-path="url(#clipPath3232)"
             style="opacity:0.3">
            <g
               id="g3244" />
            <g
               id="g3246">
              <g
                 id="g3248"
                 clip-path="url(#clipPath3236)">
                <path
                   id="path3250"
                   style="fill:#000000;fill-opacity:0;fill-rule:nonzero;stroke:none"
                   d="m 309,233.2105 612,0 0,613.7895 -612,0 0,-613.7895 z"
                   inkscape:connector-curvature="0" />
                <g
                   id="g3252"
                   transform="matrix(1.789474,0,0,-1.789474,-1101.105,1505.526)">
                  <path
                     id="path3254"
                     style="fill:none;stroke:#303030;stroke-width:2;stroke-linecap:butt;stroke-linejoin:miter;stroke-miterlimit:4;stroke-opacity:1;stroke-dasharray:none"
                     d="m 1077.794,420.7061 c 65.608,65.6079 65.608,171.9794 0,237.5877 -65.609,65.6083 -171.9799,65.6083 -237.5879,0 -65.6081,-65.6083 -65.6081,-171.9798 0,-237.5877 65.608,-65.6081 171.9789,-65.6081 237.5879,0"
                     inkscape:connector-curvature="0" />
                </g>
              </g>
            </g>
          </g>
        </g>
      </g>
    </g>
    <g
       id="g3256">
      <g
         clip-path="url(#clipPath3260)"
         id="g3258">
        <path
           id="path3264"
           style="fill:#000000;fill-opacity:0;fill-rule:nonzero;stroke:none"
           d="m -153.003,-175 1541.475,0 0,1542.857 -1541.475,0 0,-1542.857 z"
           inkscape:connector-curvature="0" />
        <g
           transform="matrix(1.9125,0,0,-1.914215,-1216.353,1628.19)"
           id="g3266">
          <path
             id="path3268"
             style="fill:none;stroke:#929292;stroke-width:1;stroke-linecap:butt;stroke-linejoin:miter;stroke-miterlimit:4;stroke-opacity:1;stroke-dasharray:none"
             d="m 1241.843,256.1573 c 156.209,156.2099 156.209,409.4758 0,565.6855 -156.21,156.2096 -409.4759,156.2096 -565.6857,0 -156.2097,-156.2097 -156.2097,-409.4756 0,-565.6855 156.2098,-156.20965 409.4757,-156.20965 565.6857,0"
             inkscape:connector-curvature="0" />
        </g>
      </g>
    </g>
    <g
       id="g3270">
      <g
         clip-path="url(#clipPath3274)"
         id="g3272">
        <path
           id="path3278"
           style="fill:#000000;fill-opacity:0;fill-rule:nonzero;stroke:none"
           d="m 78.95001,-33.90413 1159.99999,0 0,1158.90403 -1159.99999,0 0,-1158.90403 z"
           inkscape:connector-curvature="0" />
        <g
           transform="matrix(1.914191,0,0,-1.912383,-1176.76,1576.322)"
           id="g3280">
          <path
             id="path3282"
             style="fill:none;stroke:#929292;stroke-width:2;stroke-linecap:butt;stroke-linejoin:miter;stroke-miterlimit:4;stroke-opacity:1;stroke-dasharray:none"
             d="m 1171.132,326.868 c 117.157,117.1574 117.157,307.1066 0,424.2644 -117.157,117.1568 -307.1067,117.1568 -424.2641,0 -117.1572,-117.1578 -117.1572,-307.107 0,-424.2644 117.1574,-117.1573 307.1071,-117.1573 424.2641,0"
             inkscape:connector-curvature="0" />
        </g>
      </g>
    </g>
    <g
       id="g3284">
      <g
         clip-path="url(#clipPath3288)"
         id="g3286">
        <g
           id="g3292" />
        <g
           id="g3302">
          <g
             id="g3304"
             clip-path="url(#clipPath3294)"
             style="opacity:0.23999999">
            <g
               id="g3306" />
            <g
               id="g3308">
              <g
                 id="g3310"
                 clip-path="url(#clipPath3298)">
                <path
                   id="path3312"
                   style="fill:#000000;fill-opacity:0;fill-rule:nonzero;stroke:none"
                   d="m -37.20005,-74.87 1283.20005,0 0,1282 -1283.20005,0 0,-1282 z"
                   inkscape:connector-curvature="0" />
                <g
                   id="g3314"
                   transform="matrix(2.117492,0,0,-2.115511,-1426.275,1706.391)">
                  <path
                     id="path3316"
                     style="fill:none;stroke:#929292;stroke-width:2;stroke-linecap:butt;stroke-linejoin:miter;stroke-miterlimit:4;stroke-opacity:1;stroke-dasharray:none"
                     d="m 1171.132,326.868 c 117.157,117.1574 117.157,307.1066 0,424.2644 -117.157,117.1568 -307.1067,117.1568 -424.2641,0 -117.1572,-117.1578 -117.1572,-307.107 0,-424.2644 117.1574,-117.1573 307.1071,-117.1573 424.2641,0"
                     inkscape:connector-curvature="0" />
                </g>
              </g>
            </g>
          </g>
        </g>
      </g>
    </g>
    <g
       id="g3318">
      <g
         clip-path="url(#clipPath3322)"
         id="g3320">
        <path
           id="path3326"
           style="fill:#000000;fill-opacity:0;fill-rule:nonzero;stroke:none"
           d="m 230.78,90.00001 816,0 0,816.4384 -816,0 0,-816.4384 z"
           inkscape:connector-curvature="0" />
        <g
           transform="matrix(-1.346535,0,0,1.347258,1930.107,-227.9529)"
           id="g3328">
          <path
             id="path3330"
             style="fill:none;stroke:#929292;stroke-width:2;stroke-linecap:butt;stroke-linejoin:miter;stroke-miterlimit:4;stroke-opacity:1;stroke-dasharray:none"
             d="m 1171.132,326.868 c 117.157,117.1574 117.157,307.1066 0,424.2644 -117.157,117.1568 -307.1068,117.1568 -424.2642,0 -117.1572,-117.1578 -117.1572,-307.107 0,-424.2644 117.1574,-117.1573 307.1072,-117.1573 424.2642,0"
             inkscape:connector-curvature="0" />
        </g>
      </g>
    </g>
    <g
       id="g3332">
      <g
         clip-path="url(#clipPath3336)"
         id="g3334">
        <g
           id="g3340" />
        <g
           id="g3350">
          <g
             id="g3352"
             clip-path="url(#clipPath3342)"
             style="opacity:0.23999999">
            <g
               id="g3354" />
            <g
               id="g3356">
              <g
                 id="g3358"
                 clip-path="url(#clipPath3346)">
                <path
                   id="path3360"
                   style="fill:#000000;fill-opacity:0;fill-rule:nonzero;stroke:none"
                   d="m 187.0001,-18.79 1004.8,0 0,1006 -1004.8,0 0,-1006 z"
                   inkscape:connector-curvature="0" />
                <g
                   id="g3362"
                   transform="matrix(-1.658086,0,0,1.660066,2279.504,-410.5656)">
                  <path
                     id="path3364"
                     style="fill:none;stroke:#929292;stroke-width:2;stroke-linecap:butt;stroke-linejoin:miter;stroke-miterlimit:4;stroke-opacity:1;stroke-dasharray:none"
                     d="m 1171.132,326.868 c 117.157,117.1574 117.157,307.1066 0,424.2644 -117.157,117.1568 -307.1067,117.1568 -424.2641,0 -117.1573,-117.1578 -117.1573,-307.107 0,-424.2644 117.1574,-117.1573 307.1071,-117.1573 424.2641,0"
                     inkscape:connector-curvature="0" />
                </g>
              </g>
            </g>
          </g>
        </g>
      </g>
    </g>
    <g
       id="g3366">
      <g
         clip-path="url(#clipPath3370)"
         id="g3368">
        <g
           clip-path="url(#clipPath3376)"
           id="g3374">
          <g
             clip-path="url(#clipPath3382)"
             id="g3380">
            <path
               id="path3386"
               style="fill:#000000;fill-opacity:0;fill-rule:nonzero;stroke:none"
               d="m 799.1696,756 0,-400 -401.1696,0 0,400 401.1696,0 z"
               inkscape:connector-curvature="0" />
            <g
               transform="matrix(0,-1.169591,1.169591,0,-32.40944,1677.637)"
               id="g3388">
              <path
                 id="path3390"
                 style="fill:none;stroke:#303030;stroke-width:2;stroke-linecap:butt;stroke-linejoin:miter;stroke-miterlimit:4;stroke-opacity:1;stroke-dasharray:none"
                 d="m 1077.794,420.7061 c 65.608,65.6079 65.608,171.9794 0,237.5877 -65.609,65.6083 -171.9799,65.6083 -237.5879,0 -65.608,-65.6083 -65.6081,-171.9798 0,-237.5877 65.608,-65.6081 171.9789,-65.6081 237.5879,0"
                 inkscape:connector-curvature="0" />
            </g>
          </g>
        </g>
      </g>
    </g>
    <g
       id="g3392">
      <g
         clip-path="url(#clipPath3396)"
         id="g3394">
        <g
           clip-path="url(#clipPath3402)"
           id="g3400">
          <g
             clip-path="url(#clipPath3408)"
             id="g3406">
            <path
               id="path3412"
               style="fill:#000000;fill-opacity:0;fill-rule:nonzero;stroke:none"
               d="m 354.01,798 0,-535.99 535.9901,0 L 890,798 354.01,798 z"
               inkscape:connector-curvature="0" />
            <g
               transform="matrix(0,-0.665,-0.665,0,980.44,1167.74)"
               id="g3414">
              <path
                 id="path3416"
                 style="fill:none;stroke:#929292;stroke-width:1;stroke-linecap:butt;stroke-linejoin:miter;stroke-miterlimit:4;stroke-opacity:1;stroke-dasharray:none"
                 d="m 1241.843,256.1573 c 156.209,156.2098 156.209,409.4758 0,565.6855 -156.21,156.2096 -409.4759,156.2096 -565.6857,0 -156.2098,-156.2097 -156.2098,-409.4757 -10e-5,-565.6855 156.2099,-156.20974 409.4758,-156.20974 565.6858,0"
                 inkscape:connector-curvature="0" />
            </g>
          </g>
        </g>
      </g>
    </g>
    <g
       id="g3418">
      <g
         clip-path="url(#clipPath3422)"
         id="g3420">
        <g
           clip-path="url(#clipPath3428)"
           id="g3426">
          <g
             clip-path="url(#clipPath3434)"
             id="g3432">
            <path
               id="path3438"
               style="fill:#000000;fill-opacity:0;fill-rule:nonzero;stroke:none"
               d="m 951,195 0,666.0001 -666.0001,0 L 285,195 l 666,0 z"
               inkscape:connector-curvature="0" />
            <g
               transform="matrix(0,1.09901,1.09901,0,25.63365,-525.9506)"
               id="g3440">
              <path
                 id="path3442"
                 style="fill:none;stroke:#929292;stroke-width:2;stroke-linecap:butt;stroke-linejoin:miter;stroke-miterlimit:4;stroke-opacity:1;stroke-dasharray:none"
                 d="m 1171.132,326.868 c 117.157,117.1574 117.157,307.1066 0,424.2644 -117.157,117.1568 -307.1067,117.1568 -424.2641,0 -117.1572,-117.1578 -117.1572,-307.107 0,-424.2644 117.1574,-117.1573 307.1071,-117.1573 424.2641,0"
                 inkscape:connector-curvature="0" />
            </g>
          </g>
        </g>
      </g>
    </g>
    <g
       id="g3444">
      <g
         clip-path="url(#clipPath3448)"
         id="g3446">
        <g
           clip-path="url(#clipPath3454)"
           id="g3452">
          <g
             clip-path="url(#clipPath3460)"
             id="g3458">
            <path
               id="path3464"
               style="fill:#000000;fill-opacity:0;fill-rule:nonzero;stroke:none"
               d="m 424.8304,322 0,400 L 826,722.0001 826,322 424.8304,322 z"
               inkscape:connector-curvature="0" />
            <g
               transform="matrix(0,1.169591,-1.169591,0,1256.409,-599.6375)"
               id="g3466">
              <path
                 id="path3468"
                 style="fill:none;stroke:#303030;stroke-width:2;stroke-linecap:butt;stroke-linejoin:miter;stroke-miterlimit:4;stroke-opacity:1;stroke-dasharray:none"
                 d="m 1077.794,420.7061 c 65.608,65.608 65.608,171.9794 0,237.5877 -65.609,65.6083 -171.9799,65.6083 -237.5879,0 -65.6081,-65.6083 -65.6081,-171.9798 0,-237.5877 65.608,-65.6081 171.9789,-65.6081 237.5879,0"
                 inkscape:connector-curvature="0" />
            </g>
          </g>
        </g>
      </g>
    </g>
    <g
       id="g3470">
      <g
         clip-path="url(#clipPath3474)"
         id="g3472">
        <g
           clip-path="url(#clipPath3480)"
           id="g3478">
          <g
             clip-path="url(#clipPath3486)"
             id="g3484">
            <path
               id="path3490"
               style="fill:#000000;fill-opacity:0;fill-rule:nonzero;stroke:none"
               d="m 776.807,407 0,276 -276.807,0 0,-276 276.807,0 z"
               inkscape:connector-curvature="0" />
            <g
               transform="matrix(0,0.8070175,0.8070176,0,203.0176,-228.9298)"
               id="g3492">
              <path
                 id="path3494"
                 style="fill:none;stroke:#303030;stroke-width:2;stroke-linecap:butt;stroke-linejoin:miter;stroke-miterlimit:4;stroke-opacity:1;stroke-dasharray:none"
                 d="m 1077.794,420.7061 c 65.608,65.608 65.608,171.9794 0,237.5877 -65.609,65.6083 -171.9799,65.6083 -237.5879,0 -65.6081,-65.6083 -65.6081,-171.9798 0,-237.5877 65.608,-65.6081 171.9789,-65.6081 237.5879,0"
                 inkscape:connector-curvature="0" />
            </g>
          </g>
        </g>
      </g>
    </g>
    <g
       id="g3496">
      <g
         clip-path="url(#clipPath3500)"
         id="g3498">
        <g
           clip-path="url(#clipPath3506)"
           id="g3504">
          <g
             clip-path="url(#clipPath3512)"
             id="g3510">
            <path
               id="path3516"
               style="fill:#000000;fill-opacity:0;fill-rule:nonzero;stroke:none"
               d="m 503.3158,645 0,-234 234.6842,0 0,234 -234.6842,0 z"
               inkscape:connector-curvature="0" />
            <g
               transform="matrix(0,-0.6842106,-0.6842105,0,989.7894,1184.158)"
               id="g3518">
              <path
                 id="path3520"
                 style="fill:none;stroke:#303030;stroke-width:2;stroke-linecap:butt;stroke-linejoin:miter;stroke-miterlimit:4;stroke-opacity:1;stroke-dasharray:none"
                 d="m 1077.794,420.7061 c 65.608,65.6079 65.608,171.9793 0,237.5877 -65.609,65.6083 -171.9799,65.6083 -237.5879,0 -65.6081,-65.6084 -65.6081,-171.9798 0,-237.5877 65.608,-65.6081 171.9789,-65.6081 237.5879,0"
                 inkscape:connector-curvature="0" />
            </g>
          </g>
        </g>
      </g>
    </g>
    <g
       id="g3522">
      <g
         clip-path="url(#clipPath3526)"
         id="g3524">
        <g
           clip-path="url(#clipPath3532)"
           id="g3530">
          <g
             clip-path="url(#clipPath3538)"
             id="g3536">
            <path
               id="path3542"
               style="fill:#000000;fill-opacity:0;fill-rule:nonzero;stroke:none"
               d="m 334,849.0339 0,-620.6201 619.0477,1e-4 0,620.62 -619.0477,0 z"
               inkscape:connector-curvature="0" />
            <g
               transform="matrix(0,-0.77,-0.7680492,0,1057.502,1277.154)"
               id="g3544">
              <path
                 id="path3546"
                 style="fill:none;stroke:#929292;stroke-width:1;stroke-linecap:butt;stroke-linejoin:miter;stroke-miterlimit:4;stroke-opacity:1;stroke-dasharray:none"
                 d="m 1241.843,256.1573 c 156.209,156.2098 156.209,409.4758 0,565.6855 -156.21,156.2096 -409.4759,156.2096 -565.6857,0 -156.2097,-156.2097 -156.2097,-409.4757 0,-565.6855 156.2098,-156.20968 409.4757,-156.20966 565.6857,0"
                 inkscape:connector-curvature="0" />
            </g>
          </g>
        </g>
      </g>
    </g>
    <g
       id="g3548">
      <g
         clip-path="url(#clipPath3552)"
         id="g3550">
        <g
           clip-path="url(#clipPath3558)"
           id="g3556">
          <g
             clip-path="url(#clipPath3564)"
             id="g3562">
            <path
               id="path3568"
               style="fill:#000000;fill-opacity:0;fill-rule:nonzero;stroke:none"
               d="m 390.2466,755.0925 0,-466 465.7534,0 0,466 -465.7534,0 z"
               inkscape:connector-curvature="0" />
            <g
               transform="matrix(0,-0.7689769,-0.76857,0,1037.382,1259.541)"
               id="g3570">
              <path
                 id="path3572"
                 style="fill:none;stroke:#929292;stroke-width:2;stroke-linecap:butt;stroke-linejoin:miter;stroke-miterlimit:4;stroke-opacity:1;stroke-dasharray:none"
                 d="m 1171.132,326.868 c 117.157,117.1574 117.157,307.1067 0,424.2644 -117.157,117.1568 -307.1067,117.1568 -424.2642,0 -117.1571,-117.1578 -117.1571,-307.107 10e-5,-424.2643 117.1574,-117.1574 307.1071,-117.1574 424.2641,-1e-4"
                 inkscape:connector-curvature="0" />
            </g>
          </g>
        </g>
      </g>
    </g>
    <g
       id="g3574">
      <g
         clip-path="url(#clipPath3578)"
         id="g3576">
        <g
           id="g3582" />
        <g
           id="g3600">
          <g
             id="g3602"
             clip-path="url(#clipPath3584)"
             style="opacity:0.23999999">
            <g
               id="g3604" />
            <g
               id="g3606">
              <g
                 id="g3608"
                 clip-path="url(#clipPath3588)">
                <g
                   id="g3610"
                   clip-path="url(#clipPath3592)">
                  <g
                     id="g3612"
                     clip-path="url(#clipPath3596)">
                    <path
                       id="path3614"
                       style="fill:#000000;fill-opacity:0;fill-rule:nonzero;stroke:none"
                       d="m 373.94,802.2 0,-515.2 516,10e-5 0,515.2 -516,-10e-5 z"
                       inkscape:connector-curvature="0" />
                    <g
                       id="g3616"
                       transform="matrix(0,-0.850165,-0.8514852,0,1090.891,1359.908)">
                      <path
                         id="path3618"
                         style="fill:none;stroke:#929292;stroke-width:2;stroke-linecap:butt;stroke-linejoin:miter;stroke-miterlimit:4;stroke-opacity:1;stroke-dasharray:none"
                         d="m 1171.132,326.868 c 117.157,117.1574 117.157,307.1066 0,424.2644 -117.157,117.1568 -307.1067,117.1568 -424.2641,0 -117.1572,-117.1579 -117.1572,-307.1071 0,-424.2644 117.1574,-117.1574 307.1071,-117.1574 424.2641,0"
                         inkscape:connector-curvature="0" />
                    </g>
                  </g>
                </g>
              </g>
            </g>
          </g>
        </g>
      </g>
    </g>
    <g
       id="g3620">
      <g
         clip-path="url(#clipPath3624)"
         id="g3622">
        <g
           clip-path="url(#clipPath3630)"
           id="g3628">
          <g
             clip-path="url(#clipPath3636)"
             id="g3634">
            <path
               id="path3640"
               style="fill:#000000;fill-opacity:0;fill-rule:nonzero;stroke:none"
               d="m 775.7672,377.51 0,328 -328.7672,0 0,-328 328.7672,0 z"
               inkscape:connector-curvature="0" />
            <g
               transform="matrix(0,0.5412542,0.5425201,0,318.9652,22.44726)"
               id="g3642">
              <path
                 id="path3644"
                 style="fill:none;stroke:#929292;stroke-width:2;stroke-linecap:butt;stroke-linejoin:miter;stroke-miterlimit:4;stroke-opacity:1;stroke-dasharray:none"
                 d="m 1171.132,326.868 c 117.157,117.1574 117.157,307.1066 0,424.2644 -117.157,117.1568 -307.1067,117.1568 -424.2641,0 -117.1571,-117.1578 -117.1571,-307.107 0,-424.2644 117.1574,-117.1573 307.1071,-117.1573 424.2641,0"
                 inkscape:connector-curvature="0" />
            </g>
          </g>
        </g>
      </g>
    </g>
    <g
       id="g3646">
      <g
         clip-path="url(#clipPath3650)"
         id="g3648">
        <g
           id="g3654" />
        <g
           id="g3672">
          <g
             id="g3674"
             clip-path="url(#clipPath3656)"
             style="opacity:0.23999999">
            <g
               id="g3676" />
            <g
               id="g3678">
              <g
                 id="g3680"
                 clip-path="url(#clipPath3660)">
                <g
                   id="g3682"
                   clip-path="url(#clipPath3664)">
                  <g
                     id="g3684"
                     clip-path="url(#clipPath3668)">
                    <path
                       id="path3686"
                       style="fill:#000000;fill-opacity:0;fill-rule:nonzero;stroke:none"
                       d="m 806.35,299.4 0,409.6 -410,-10e-5 10e-5,-409.5999 409.9999,0 z"
                       inkscape:connector-curvature="0" />
                    <g
                       id="g3688"
                       transform="matrix(0,0.6759076,0.6765676,0,236.6801,-143.9954)">
                      <path
                         id="path3690"
                         style="fill:none;stroke:#929292;stroke-width:2;stroke-linecap:butt;stroke-linejoin:miter;stroke-miterlimit:4;stroke-opacity:1;stroke-dasharray:none"
                         d="m 1171.132,326.868 c 117.157,117.1574 117.157,307.1066 0,424.2644 -117.157,117.1568 -307.1067,117.1568 -424.2641,0 -117.1571,-117.1577 -117.1572,-307.1069 0,-424.2644 117.1574,-117.1573 307.1071,-117.1573 424.2641,0"
                         inkscape:connector-curvature="0" />
                    </g>
                  </g>
                </g>
              </g>
            </g>
          </g>
        </g>
      </g>
    </g>
  </g>
</svg>
